<svg xmlns="http://www.w3.org/2000/svg" viewBox="0 0 24 24" width="24" height="24">
  <!-- Back panel of the folder -->
  <path d="M2 5c0-1.1.9-2 2-2h5l2 3h9c1.1 0 2 .9 2 2v10c0 1.1-.9 2-2 2H4c-1.1 0-2-.9-2-2V5z" fill="#1D4ED8"/>
  <!-- Paper sheet inside -->
  <path d="M5 5h14v8H5z" fill="#FFFFFF"/>
  <!-- Front flap of the folder -->
  <path d="M2 9v11c0 1.1.9 2 2 2h16c1.1 0 2-.9 2-2V9H2z" fill="#3B82F6"/>
  <!-- Highlights/accent line on the front flap -->
  <path d="M2 9h20v1H2z" fill="#60A5FA" opacity="0.5"/>
</svg>
